<svg xmlns="http://www.w3.org/2000/svg" version="1.0" viewBox="0 0 64 64">
  <path fill="#0D47A1" stroke="#FFF" stroke-width="3" d="M-40.64 86.475l33.402-.1257 2.0728-6.918c8.5364-28.488 28.755-52.615 55.448-66.168 4.447-2.258 11.748-5.3014 16.225-6.764L74.6471 3.84l-.1257-33.399-.1258-33.399 25-.0941 25-.0942.1256 33.353.1255 33.353 8.534 2.7406c34.281 11.009 61.322 38.149 71.741 72.002l2.2287 7.2417 33.402-.1257 33.402-.1257.0941 25 .0941 25-33.336.1255-33.336.1255-1.7053 6.2565c-2.2152 8.1274-9.1282 22.841-14.531 30.928-5.8455 8.7493-18.747 21.925-27.268 27.847-9.7147 6.752-21.919 12.765-31.753 15.644l-8.2589 2.4178-.1388 33.112-.1388 33.112-24.486.0922-24.486.0922-.1258-33.402-.1257-33.402-7.2088-2.16c-16.199-4.87-33.255-15.41-45.652-28.22-12.764-13.2-21.277-27.34-26.427-43.9l-2.3691-7.619-33.316.1254-33.316.1254-.0941-25-.0941-25 33.402-.1258z" transform="matrix(.1487 0 0 .1487 17.1219 15.5012)"/>
  <path fill="#0D47A1" stroke="#FFF" stroke-width="1.2318" d="M11.0789 28.3612l4.9673-.0187.3083-1.0287c1.2693-4.2365 4.276-7.8245 8.2457-9.84.6614-.3357 1.7472-.7884 2.4128-1.0059l1.2105-.3954-.0187-4.9669-.0187-4.9668 3.7178-.014 3.7178-.014.0186 4.96.0187 4.96 1.269.4075c5.098 1.6371 9.1194 5.6731 10.6685 10.7074l.3314 1.0769 4.9674-.0187 4.9673-.0187.014 3.7178.014 3.7178-4.9574.0186-4.9574.0187-.2536.9304c-.3294 1.2086-1.3574 3.3967-2.1609 4.5992-.8692 1.3011-2.7878 3.2605-4.055 4.1412-1.4447 1.0041-3.2596 1.8982-4.722 2.3264l-1.2283.3595-.0206 4.9241-.0207 4.9242-3.6414.0137-3.6414.0137-.0187-4.9674-.0187-4.9673-1.072-.3212c-2.4118-.7227-4.9482-2.2894-6.7918-4.1953-1.898-1.9623-3.164-4.0654-3.93-6.528l-.3522-1.133-4.9545.0186-4.9546.0186-.014-3.7178-.014-3.7177 4.9674-.0187z"/>
  <path fill="#FFF" stroke="#222752" stroke-linejoin="round" stroke-width=".075961" d="M28.3323 18.0962h7.337v27.809h-7.337z"/>
</svg>
