<svg xmlns="http://www.w3.org/2000/svg" version="1.0" viewBox="0 0 365.38 365.38">
  <defs/>
  <path d="M198.4298 185.4369a15.9146 15.9146 0 11-31.7216-2.588 15.9146 15.9146 0 1131.7216 2.588z"/>
  <path fill="none" stroke="#000" stroke-linecap="round" stroke-width="6" d="M241.063 188.9168a58.6954 58.6954 0 11-116.997-9.5451 58.6954 58.6954 0 11116.997 9.5451z"/>
  <path d="M191.0644 79.9985a15.9146 15.9146 0 11-2.588 31.7216 15.9146 15.9146 0 112.588-31.7216zM285.5439 191.2666a15.9146 15.9146 0 11-31.7216-2.588 15.9146 15.9146 0 1131.7216 2.588zM174.282 285.7479a15.9146 15.9146 0 112.588-31.7216 15.9146 15.9146 0 11-2.588 31.7216zM79.795 174.4791a15.9146 15.9146 0 1131.7216 2.588 15.9146 15.9146 0 11-31.7217-2.588zM241.2645 97.9023a15.9147 15.9147 0 11-18.0673 26.202 15.9147 15.9147 0 1118.0673-26.202zM267.6462 241.4698a15.9147 15.9147 0 11-26.202-18.0673 15.9147 15.9147 0 1126.202 18.0673zM124.0789 267.8502a15.9147 15.9147 0 1118.0673-26.202 15.9147 15.9147 0 11-18.0673 26.202zM97.6978 124.2828a15.9147 15.9147 0 1126.202 18.0673 15.9147 15.9147 0 11-26.202-18.0673zM277.3661 141.814a15.9145 15.9145 0 11-29.1998 12.6616 15.9145 15.9145 0 1129.1998-12.6616zM223.7346 277.5701a15.9145 15.9145 0 11-12.6616-29.1998 15.9145 15.9145 0 1112.6616 29.1998zM87.9785 223.9386a15.9145 15.9145 0 1129.1998-12.6616 15.9145 15.9145 0 11-29.1998 12.6616zM141.609 88.176a15.9145 15.9145 0 1112.6615 29.1998A15.9145 15.9145 0 11141.609 88.176z"/>
  <path d="M191.0644 79.9985a15.9146 15.9146 0 11-2.588 31.7216 15.9146 15.9146 0 112.588-31.7216zM285.5439 191.2666a15.9146 15.9146 0 11-31.7216-2.588 15.9146 15.9146 0 1131.7216 2.588zM174.282 285.7479a15.9146 15.9146 0 112.588-31.7216 15.9146 15.9146 0 11-2.588 31.7216zM79.795 174.4791a15.9146 15.9146 0 1131.7216 2.588 15.9146 15.9146 0 11-31.7217-2.588zM241.2645 97.9023a15.9147 15.9147 0 11-18.0673 26.202 15.9147 15.9147 0 1118.0673-26.202zM267.6462 241.4698a15.9147 15.9147 0 11-26.202-18.0673 15.9147 15.9147 0 1126.202 18.0673zM124.0789 267.8502a15.9147 15.9147 0 1118.0673-26.202 15.9147 15.9147 0 11-18.0673 26.202zM97.6978 124.2828a15.9147 15.9147 0 1126.202 18.0673 15.9147 15.9147 0 11-26.202-18.0673zM277.3661 141.814a15.9145 15.9145 0 11-29.1998 12.6616 15.9145 15.9145 0 1129.1998-12.6616zM223.7346 277.5701a15.9145 15.9145 0 11-12.6616-29.1998 15.9145 15.9145 0 1112.6616 29.1998zM87.9785 223.9386a15.9145 15.9145 0 1129.1998-12.6616 15.9145 15.9145 0 11-29.1998 12.6616zM141.609 88.176a15.9145 15.9145 0 1112.6615 29.1998A15.9145 15.9145 0 11141.609 88.176zM194.3773 39.3924a15.9146 15.9146 0 11-2.588 31.7217 15.9146 15.9146 0 112.588-31.7217zM325.4857 193.7972a15.9146 15.9146 0 11-31.7216-2.588 15.9146 15.9146 0 1131.7216 2.588zM171.0872 324.9074a15.9146 15.9146 0 112.588-31.7217 15.9146 15.9146 0 11-2.588 31.7217zM39.9762 170.5024a15.9146 15.9146 0 1131.7217 2.588 15.9146 15.9146 0 11-31.7217-2.588zM240.1385 50.9243a15.9146 15.9146 0 11-12.7565 29.1586 15.9146 15.9146 0 1112.7565-29.1586zM313.9537 239.5597a15.9146 15.9146 0 11-29.1586-12.7565 15.9146 15.9146 0 1129.1586 12.7565zM125.3252 313.369a15.9146 15.9146 0 1112.7565-29.1585 15.9146 15.9146 0 11-12.7565 29.1586zM51.5095 124.74a15.9146 15.9146 0 1129.1586 12.7565A15.9146 15.9146 0 1151.5095 124.74zM283.8911 80.7552a15.9144 15.9144 0 11-22.4787 22.5308 15.9144 15.9144 0 1122.4787-22.5308zM284.1297 283.3065a15.9144 15.9144 0 11-22.5309-22.4788 15.9144 15.9144 0 1122.5309 22.4788zM81.572 283.5445a15.9144 15.9144 0 1122.4788-22.5308 15.9144 15.9144 0 11-22.4787 22.5308zM81.3347 80.987a15.9144 15.9144 0 1122.5308 22.4787 15.9144 15.9144 0 11-22.5308-22.4788zM309.1864 114.8885a15.9145 15.9145 0 11-28.0995 14.9453 15.9145 15.9145 0 1128.0995-14.9453zM249.99 308.6012a15.9145 15.9145 0 11-14.9453-28.0995 15.9145 15.9145 0 1114.9453 28.0995zM56.2768 249.4112a15.9145 15.9145 0 1128.0995-14.9453 15.9145 15.9145 0 11-28.0995 14.9453zM115.4724 55.692a15.9145 15.9145 0 1114.9453 28.0995 15.9145 15.9145 0 11-14.9453-28.0995zM323.1145 153.747a15.9146 15.9146 0 11-31.195 6.311 15.9146 15.9146 0 1131.195-6.311zM211.131 322.5357a15.9146 15.9146 0 11-6.311-31.195 15.9146 15.9146 0 116.311 31.195zM42.3486 210.5526a15.9146 15.9146 0 1131.195-6.311 15.9146 15.9146 0 11-31.195 6.311zM154.3294 41.7637a15.9146 15.9146 0 116.311 31.195 15.9146 15.9146 0 11-6.311-31.195zM197.5866.0553a15.9146 15.9146 0 11-2.588 31.7216 15.9146 15.9146 0 112.588-31.7216zM365.3245 197.5903a15.9146 15.9146 0 11-31.7217-2.588 15.9146 15.9146 0 1131.7217 2.588zM167.7894 365.3295a15.9146 15.9146 0 112.588-31.7217 15.9146 15.9146 0 11-2.588 31.7217zM.0505 167.7944a15.9146 15.9146 0 1131.7216 2.588 15.9146 15.9146 0 11-31.7216-2.588zM242.3555 9.4375a15.9144 15.9144 0 11-10.364 30.0919 15.9144 15.9144 0 1110.364-30.0919zM355.942 242.361a15.9144 15.9144 0 11-30.0918-10.364 15.9144 15.9144 0 1130.0919 10.364zM123.0186 355.947a15.9144 15.9144 0 1110.364-30.0918 15.9144 15.9144 0 11-10.364 30.0919zM9.432 123.0235a15.9144 15.9144 0 1130.0918 10.364 15.9144 15.9144 0 11-30.0919-10.364zM363.1612 150.971a15.9146 15.9146 0 11-31.3465 5.5094 15.9146 15.9146 0 1131.3465-5.5094zM214.4087 363.1662a15.9146 15.9146 0 11-5.5094-31.3465 15.9146 15.9146 0 115.5094 31.3465zM2.211 214.4135a15.9146 15.9146 0 1131.3464-5.5094 15.9146 15.9146 0 11-31.3465 5.5094zM150.9653 2.2184a15.9146 15.9146 0 115.5095 31.3465 15.9146 15.9146 0 11-5.5095-31.3465zM350.3366 108.7177a15.9147 15.9147 0 11-29.1184 12.8484 15.9147 15.9147 0 1129.1184-12.8484zM256.662 350.3416a15.9147 15.9147 0 11-12.8485-29.1185 15.9147 15.9147 0 1112.8484 29.1185zM15.038 256.6669a15.9147 15.9147 0 1129.1185-12.8484 15.9147 15.9147 0 11-29.1184 12.8484zM108.7128 15.043a15.9147 15.9147 0 1112.8483 29.1185 15.9147 15.9147 0 11-12.8483-29.1184zM337.4947 280.7316a15.9147 15.9147 0 11-26.8886-17.0285 15.9147 15.9147 0 1126.8886 17.0285zM84.6476 337.506a15.9147 15.9147 0 1117.0285-26.8885 15.9147 15.9147 0 11-17.0285 26.8885zM27.8768 84.6528a15.9147 15.9147 0 1126.8886 17.0285 15.9147 15.9147 0 11-26.8886-17.0285zM280.7266 27.885a15.9147 15.9147 0 11-17.0285 26.8885 15.9147 15.9147 0 1117.0285-26.8885zM300.5605 322.9942a15.9148 15.9148 0 11-20.473-24.3686 15.9148 15.9148 0 1120.473 24.3686zM42.3854 300.5655a15.9148 15.9148 0 1124.3686-20.473 15.9148 15.9148 0 11-24.3686 20.473zM64.8148 42.3904a15.9148 15.9148 0 1120.473 24.3687 15.9148 15.9148 0 11-20.473-24.3687zM322.9893 64.8191a15.9148 15.9148 0 11-24.3687 20.4731 15.9148 15.9148 0 1124.3687-20.473z"/>
</svg>
